<svg width="136" height="32" viewBox="0 0 136 32" fill="none" xmlns="http://www.w3.org/2000/svg">
<path d="M131.984 16C131.347 16 130.761 15.9307 130.225 15.7922C129.699 15.6445 129.223 15.4321 128.799 15.1551C128.383 14.8781 128 14.5411 127.649 14.144L128.757 12.759C129.293 13.3776 129.824 13.8116 130.35 14.0609C130.876 14.3102 131.453 14.4349 132.081 14.4349C132.441 14.4349 132.778 14.3887 133.092 14.2964C133.406 14.2041 133.66 14.0656 133.854 13.8809C134.048 13.687 134.145 13.4561 134.145 13.1884C134.145 13.0129 134.099 12.8606 134.006 12.7313C133.914 12.5928 133.785 12.4774 133.619 12.385C133.462 12.2835 133.272 12.1957 133.051 12.1219C132.838 12.048 132.612 11.988 132.372 11.9418C132.132 11.8864 131.883 11.8403 131.624 11.8033C131.07 11.711 130.576 11.5863 130.142 11.4294C129.708 11.2724 129.343 11.0739 129.048 10.8338C128.752 10.5845 128.526 10.2982 128.369 9.97507C128.222 9.65189 128.148 9.27793 128.148 8.85318C128.148 8.42844 128.245 8.04063 128.439 7.68975C128.642 7.33887 128.919 7.03878 129.27 6.78947C129.63 6.54017 130.041 6.34626 130.502 6.20776C130.973 6.06925 131.476 6 132.012 6C132.612 6 133.148 6.06464 133.619 6.19391C134.099 6.32318 134.519 6.51246 134.879 6.76177C135.239 7.01108 135.544 7.30655 135.793 7.6482L134.657 8.86703C134.436 8.58079 134.186 8.34533 133.909 8.16066C133.632 7.96676 133.328 7.82364 132.995 7.7313C132.672 7.62973 132.335 7.57895 131.984 7.57895C131.596 7.57895 131.255 7.62511 130.959 7.71745C130.673 7.80979 130.442 7.94367 130.267 8.11911C130.101 8.29455 130.017 8.50692 130.017 8.75623C130.017 8.95014 130.068 9.12096 130.17 9.2687C130.281 9.41643 130.433 9.5457 130.627 9.65651C130.83 9.76731 131.07 9.85965 131.347 9.93351C131.633 10.0074 131.947 10.072 132.289 10.1274C132.815 10.2198 133.305 10.3352 133.757 10.4737C134.21 10.6122 134.602 10.7876 134.934 11C135.276 11.2124 135.539 11.4755 135.724 11.7895C135.909 12.0942 136.001 12.4635 136.001 12.8975C136.001 13.5346 135.83 14.0886 135.488 14.5595C135.156 15.0212 134.69 15.3767 134.089 15.626C133.489 15.8753 132.788 16 131.984 16Z" fill="white"/>
<path d="M120.775 15.9446C119.916 15.9446 119.159 15.7645 118.503 15.4044C117.848 15.0443 117.331 14.5503 116.952 13.9224C116.583 13.2853 116.398 12.5697 116.398 11.7756V6.15234H118.212V11.6787C118.212 12.1773 118.328 12.6205 118.559 13.0083C118.789 13.3961 119.099 13.7054 119.487 13.9363C119.874 14.1671 120.304 14.2825 120.775 14.2825C121.283 14.2825 121.735 14.1671 122.132 13.9363C122.529 13.7054 122.843 13.3961 123.074 13.0083C123.305 12.6205 123.42 12.1773 123.42 11.6787V6.15234H125.165V11.7756C125.165 12.5697 124.976 13.2853 124.597 13.9224C124.228 14.5503 123.716 15.0443 123.06 15.4044C122.404 15.7645 121.643 15.9446 120.775 15.9446Z" fill="white"/>
<path d="M109.64 16C109.003 16 108.416 15.9307 107.881 15.7922C107.354 15.6445 106.879 15.4321 106.454 15.1551C106.039 14.8781 105.655 14.5411 105.305 14.144L106.413 12.759C106.948 13.3776 107.479 13.8116 108.005 14.0609C108.532 14.3102 109.109 14.4349 109.737 14.4349C110.097 14.4349 110.434 14.3887 110.748 14.2964C111.062 14.2041 111.316 14.0656 111.51 13.8809C111.703 13.687 111.8 13.4561 111.8 13.1884C111.8 13.0129 111.754 12.8606 111.662 12.7313C111.57 12.5928 111.44 12.4774 111.274 12.385C111.117 12.2835 110.928 12.1957 110.706 12.1219C110.494 12.048 110.268 11.988 110.028 11.9418C109.787 11.8864 109.538 11.8403 109.28 11.8033C108.726 11.711 108.232 11.5863 107.798 11.4294C107.364 11.2724 106.999 11.0739 106.703 10.8338C106.408 10.5845 106.182 10.2982 106.025 9.97507C105.877 9.65189 105.803 9.27793 105.803 8.85318C105.803 8.42844 105.9 8.04063 106.094 7.68975C106.297 7.33887 106.574 7.03878 106.925 6.78947C107.285 6.54017 107.696 6.34626 108.158 6.20776C108.629 6.06925 109.132 6 109.667 6C110.268 6 110.803 6.06464 111.274 6.19391C111.754 6.32318 112.174 6.51246 112.534 6.76177C112.895 7.01108 113.199 7.30655 113.449 7.6482L112.313 8.86703C112.091 8.58079 111.842 8.34533 111.565 8.16066C111.288 7.96676 110.983 7.82364 110.651 7.7313C110.328 7.62973 109.991 7.57895 109.64 7.57895C109.252 7.57895 108.91 7.62511 108.615 7.71745C108.329 7.80979 108.098 7.94367 107.922 8.11911C107.756 8.29455 107.673 8.50692 107.673 8.75623C107.673 8.95014 107.724 9.12096 107.825 9.2687C107.936 9.41643 108.088 9.5457 108.282 9.65651C108.486 9.76731 108.726 9.85965 109.003 9.93351C109.289 10.0074 109.603 10.072 109.944 10.1274C110.471 10.2198 110.96 10.3352 111.413 10.4737C111.865 10.6122 112.257 10.7876 112.59 11C112.932 11.2124 113.195 11.4755 113.379 11.7895C113.564 12.0942 113.656 12.4635 113.656 12.8975C113.656 13.5346 113.486 14.0886 113.144 14.5595C112.811 15.0212 112.345 15.3767 111.745 15.626C111.145 15.8753 110.443 16 109.64 16Z" fill="white"/>
<path d="M93.2448 15.8615V6.1662H94.9207L101.32 13.7424L101.07 13.7978C101.024 13.5208 100.987 13.2391 100.959 12.9529C100.932 12.6574 100.904 12.3573 100.876 12.0526C100.858 11.7479 100.839 11.434 100.821 11.1108C100.812 10.7876 100.802 10.4598 100.793 10.1274C100.793 9.78577 100.793 9.43489 100.793 9.07478V6.1662H102.58V15.8615H100.876L94.4497 8.39611L94.7544 8.29916C94.7821 8.67774 94.8098 9.01938 94.8375 9.32409C94.8652 9.6288 94.893 9.91042 94.9207 10.169C94.9484 10.4183 94.9668 10.6537 94.9761 10.8753C94.9945 11.0877 95.0084 11.3001 95.0176 11.5125C95.0268 11.7156 95.0315 11.9141 95.0315 12.108V15.8615H93.2448Z" fill="white"/>
<path d="M82.8705 15.8615V6.1662H89.9896V7.80055H84.6433V14.2271H90.045V15.8615H82.8705ZM83.7569 11.7064V10.0997H89.2832V11.7064H83.7569Z" fill="white"/>
<path d="M75.9875 16C75.3504 16 74.7641 15.9307 74.2285 15.7922C73.7022 15.6445 73.2267 15.4321 72.8019 15.1551C72.3864 14.8781 72.0032 14.5411 71.6523 14.144L72.7604 12.759C73.2959 13.3776 73.8269 13.8116 74.3532 14.0609C74.8795 14.3102 75.4566 14.4349 76.0845 14.4349C76.4446 14.4349 76.7816 14.3887 77.0956 14.2964C77.4095 14.2041 77.6634 14.0656 77.8573 13.8809C78.0512 13.687 78.1482 13.4561 78.1482 13.1884C78.1482 13.0129 78.102 12.8606 78.0097 12.7313C77.9174 12.5928 77.7881 12.4774 77.6219 12.385C77.4649 12.2835 77.2756 12.1957 77.054 12.1219C76.8416 12.048 76.6154 11.988 76.3753 11.9418C76.1353 11.8864 75.886 11.8403 75.6274 11.8033C75.0734 11.711 74.5794 11.5863 74.1454 11.4294C73.7114 11.2724 73.3467 11.0739 73.0512 10.8338C72.7558 10.5845 72.5295 10.2982 72.3726 9.97507C72.2248 9.65189 72.151 9.27793 72.151 8.85318C72.151 8.42844 72.2479 8.04063 72.4418 7.68975C72.645 7.33887 72.922 7.03878 73.2728 6.78947C73.633 6.54017 74.0439 6.34626 74.5055 6.20776C74.9764 6.06925 75.4797 6 76.0152 6C76.6154 6 77.151 6.06464 77.6219 6.19391C78.102 6.32318 78.5222 6.51246 78.8823 6.76177C79.2424 7.01108 79.5471 7.30655 79.7964 7.6482L78.6607 8.86703C78.4391 8.58079 78.1897 8.34533 77.9127 8.16066C77.6357 7.96676 77.331 7.82364 76.9986 7.7313C76.6754 7.62973 76.3384 7.57895 75.9875 7.57895C75.5997 7.57895 75.2581 7.62511 74.9626 7.71745C74.6764 7.80979 74.4455 7.94367 74.2701 8.11911C74.1039 8.29455 74.0208 8.50692 74.0208 8.75623C74.0208 8.95014 74.0716 9.12096 74.1731 9.2687C74.2839 9.41643 74.4363 9.5457 74.6302 9.65651C74.8333 9.76731 75.0734 9.85965 75.3504 9.93351C75.6367 10.0074 75.9506 10.072 76.2922 10.1274C76.8186 10.2198 77.3079 10.3352 77.7604 10.4737C78.2128 10.6122 78.6053 10.7876 78.9377 11C79.2793 11.2124 79.5425 11.4755 79.7271 11.7895C79.9118 12.0942 80.0042 12.4635 80.0042 12.8975C80.0042 13.5346 79.8333 14.0886 79.4917 14.5595C79.1593 15.0212 78.693 15.3767 78.0928 15.626C77.4926 15.8753 76.7909 16 75.9875 16Z" fill="white"/>
<path d="M59.5925 15.8615V6.1662H61.2684L67.6673 13.7424L67.418 13.7978C67.3718 13.5208 67.3349 13.2391 67.3072 12.9529C67.2795 12.6574 67.2518 12.3573 67.2241 12.0526C67.2056 11.7479 67.1872 11.434 67.1687 11.1108C67.1595 10.7876 67.1502 10.4598 67.141 10.1274C67.141 9.78577 67.141 9.43489 67.141 9.07478V6.1662H68.9277V15.8615H67.2241L60.7975 8.39611L61.1022 8.29916C61.1299 8.67774 61.1576 9.01938 61.1853 9.32409C61.213 9.6288 61.2407 9.91042 61.2684 10.169C61.2961 10.4183 61.3146 10.6537 61.3238 10.8753C61.3423 11.0877 61.3562 11.3001 61.3654 11.5125C61.3746 11.7156 61.3792 11.9141 61.3792 12.108V15.8615H59.5925Z" fill="white"/>
<path d="M51.4361 16C50.6697 16 49.9634 15.8753 49.317 15.626C48.6799 15.3767 48.1213 15.0258 47.6411 14.5734C47.161 14.121 46.7916 13.59 46.5331 12.9806C46.2745 12.3712 46.1453 11.711 46.1453 11C46.1453 10.289 46.2745 9.62881 46.5331 9.01939C46.7916 8.40997 47.161 7.87904 47.6411 7.42659C48.1213 6.97414 48.6799 6.62327 49.317 6.37396C49.9634 6.12465 50.6697 6 51.4361 6C52.2025 6 52.9089 6.12465 53.5552 6.37396C54.2016 6.62327 54.7602 6.97876 55.2311 7.44044C55.7021 7.89289 56.0668 8.42382 56.3253 9.03324C56.5931 9.63342 56.727 10.289 56.727 11C56.727 11.7017 56.5931 12.3573 56.3253 12.9668C56.0668 13.5762 55.7021 14.1117 55.2311 14.5734C54.7602 15.0258 54.2016 15.3767 53.5552 15.626C52.9089 15.8753 52.2025 16 51.4361 16ZM51.4361 14.2825C51.944 14.2825 52.4057 14.2041 52.8212 14.0471C53.2459 13.8809 53.6106 13.65 53.9154 13.3546C54.2293 13.0499 54.4694 12.699 54.6356 12.3019C54.811 11.9049 54.8987 11.4709 54.8987 11C54.8987 10.5291 54.811 10.0951 54.6356 9.69806C54.4694 9.30101 54.2293 8.95475 53.9154 8.65928C53.6106 8.35457 53.2459 8.12373 52.8212 7.96676C52.4057 7.80055 51.944 7.71745 51.4361 7.71745C50.9375 7.71745 50.4758 7.80055 50.0511 7.96676C49.6263 8.12373 49.257 8.35457 48.943 8.65928C48.6383 8.95475 48.4029 9.30101 48.2367 9.69806C48.0705 10.0951 47.9874 10.5291 47.9874 11C47.9874 11.4709 48.0705 11.9049 48.2367 12.3019C48.4029 12.699 48.6383 13.0499 48.943 13.3546C49.257 13.65 49.6263 13.8809 50.0511 14.0471C50.4758 14.2041 50.9375 14.2825 51.4361 14.2825Z" fill="white"/>
<path d="M40.1662 16C39.4275 16 38.7442 15.88 38.1163 15.6399C37.4885 15.3998 36.9391 15.0582 36.4681 14.615C36.0065 14.1718 35.6464 13.6454 35.3878 13.036C35.1293 12.4174 35 11.7387 35 11C35 10.289 35.1339 9.63344 35.4017 9.03325C35.6787 8.43307 36.0526 7.91137 36.5235 7.46816C37.0037 7.01571 37.5577 6.66483 38.1856 6.41553C38.8227 6.16622 39.5014 6.04156 40.2216 6.04156C40.7572 6.04156 41.2696 6.11543 41.759 6.26317C42.2576 6.41091 42.7101 6.60481 43.1163 6.84489C43.5319 7.08496 43.8735 7.35274 44.1413 7.64821L43.0332 9.00555C42.7655 8.74701 42.4838 8.53002 42.1884 8.35458C41.8929 8.16991 41.5743 8.02679 41.2327 7.92522C40.9003 7.82365 40.5448 7.77287 40.1662 7.77287C39.7322 7.77287 39.3121 7.85135 38.9058 8.00832C38.4995 8.15606 38.144 8.37305 37.8393 8.65929C37.5346 8.94553 37.2899 9.28718 37.1053 9.68422C36.9298 10.0813 36.8421 10.5245 36.8421 11.0139C36.8421 11.5217 36.9298 11.9788 37.1053 12.385C37.2899 12.7821 37.5439 13.1237 37.867 13.41C38.1902 13.687 38.5642 13.904 38.9889 14.0609C39.4137 14.2087 39.8707 14.2826 40.3601 14.2826C40.7664 14.2826 41.1404 14.2272 41.482 14.1164C41.8236 14.0055 42.133 13.867 42.41 13.7008C42.687 13.5254 42.9409 13.3361 43.1717 13.133L44.0443 14.5734C43.8043 14.8043 43.4811 15.0305 43.0748 15.2521C42.6778 15.4737 42.2253 15.6537 41.7175 15.7922C41.2096 15.9308 40.6925 16 40.1662 16Z" fill="white"/>
<path d="M38.3926 20C38.7405 20 39.0737 20.0476 39.3916 20.1436C39.7154 20.2395 40.0096 20.3656 40.2734 20.5215C40.5434 20.6774 40.7655 20.852 40.9395 21.0439L40.2197 21.9258C40.0458 21.7578 39.8628 21.6169 39.6709 21.5029C39.4789 21.3829 39.2718 21.2896 39.0498 21.2236C38.8338 21.1577 38.6024 21.125 38.3564 21.125C38.0746 21.1251 37.8019 21.1764 37.5381 21.2783C37.2741 21.3743 37.0427 21.5152 36.8447 21.7012C36.6468 21.8871 36.4881 22.1093 36.3682 22.3672C36.2543 22.625 36.1973 22.9127 36.1973 23.2305C36.1973 23.5605 36.2542 23.8581 36.3682 24.1221C36.4882 24.38 36.6534 24.6022 36.8633 24.7881C37.0732 24.9679 37.316 25.109 37.5918 25.2109C37.8677 25.3069 38.1646 25.3544 38.4824 25.3545C38.7464 25.3545 38.9899 25.3191 39.2119 25.2471C39.4338 25.1751 39.6345 25.0845 39.8145 24.9766C39.9945 24.8626 40.1596 24.7394 40.3096 24.6074L40.877 25.5439C40.721 25.6939 40.5111 25.8414 40.2471 25.9854C39.9892 26.1293 39.6951 26.246 39.3652 26.3359C39.0352 26.4259 38.6984 26.4707 38.3564 26.4707C37.8766 26.4707 37.4323 26.3933 37.0244 26.2373C36.6167 26.0814 36.26 25.8591 35.9541 25.5713C35.6541 25.2833 35.42 24.9409 35.252 24.5449C35.084 24.1429 35 23.7017 35 23.2217C35 22.7599 35.0869 22.3342 35.2607 21.9443C35.4407 21.5543 35.6842 21.2148 35.9902 20.9268C36.3022 20.6329 36.6624 20.4051 37.0703 20.2432C37.4841 20.0813 37.9248 20 38.3926 20ZM87.667 20.0811C88.0568 20.0811 88.4106 20.1679 88.7285 20.3418C89.0465 20.5158 89.2956 20.7528 89.4756 21.0527C89.6616 21.3527 89.7549 21.6923 89.7549 22.0703C89.7548 22.4421 89.6587 22.781 89.4668 23.0869C89.2748 23.3929 89.0164 23.6354 88.6924 23.8154C88.6173 23.8571 88.5399 23.8928 88.4609 23.9248L90.0605 26.3896L88.6562 26.3809L87.1895 24.0859H85.6953V26.3809H84.5527V20.0811H87.667ZM50.041 21.1426H46.5664V22.6367H49.582V23.6807H46.5664V25.3193H50.0762V26.3809H45.415V20.0811H50.041V21.1426ZM59.9219 24.7637C59.9101 24.6736 59.9005 24.5827 59.8916 24.4912C59.8736 24.2993 59.8549 24.1041 59.8369 23.9062C59.8249 23.7083 59.8138 23.5039 59.8018 23.2939C59.7958 23.0841 59.7892 22.8711 59.7832 22.6553V20.0811H60.9443V26.3809H59.8369L55.8848 21.79C55.8945 21.9113 55.9033 22.0256 55.9131 22.1328C55.9311 22.3307 55.9488 22.5137 55.9668 22.6816C55.9848 22.8435 55.9969 22.9967 56.0029 23.1406C56.0149 23.2786 56.0243 23.4167 56.0303 23.5547C56.0363 23.6865 56.0391 23.8156 56.0391 23.9414V26.3809H54.8779V20.0811H55.9668L59.9219 24.7637ZM70.6748 21.1611H68.5693V26.3809H67.3994V21.1611H65.3477V20.0811H70.6748V21.1611ZM79.7148 21.1426H76.2412V22.6367H79.2559V23.6807H76.2412V25.3193H79.751V26.3809H75.0889V20.0811H79.7148V21.1426ZM85.6953 23.0693H87.5762C87.7622 23.0693 87.9273 23.0264 88.0713 22.9424C88.2213 22.8524 88.3389 22.7358 88.4229 22.5918C88.5128 22.4418 88.5576 22.2766 88.5576 22.0967C88.5576 21.9108 88.51 21.7455 88.4141 21.6016C88.3181 21.4576 88.1856 21.3438 88.0176 21.2598C87.8496 21.1758 87.6574 21.1338 87.4414 21.1338H85.6953V23.0693Z" fill="white"/>
<g clip-path="url(#clip0_13419_431)">
<path d="M16.3926 3.20602C20.2954 3.32568 23.7365 5.17886 25.9998 8.00387L28.5 6.00463C25.5665 2.3442 21.0572 0 16 0C10.9428 0 6.43351 2.3442 3.5 6.00464L5.99979 8.00354C8.43057 4.97122 12.2078 3.0777 16.3926 3.20602Z" fill="white"/>
<path d="M15.6074 28.794C11.7046 28.6743 8.26349 26.8212 6.00021 23.9962L3.5 25.9954C6.43351 29.6558 10.9428 32 16 32C21.0572 32 25.5665 29.6558 28.5 25.9954L26.0002 23.9965C23.5694 27.0288 19.7922 28.9223 15.6074 28.794Z" fill="white"/>
<path d="M20.9997 12.0021L23.4995 10.0031C21.7394 7.80689 19.0343 6.40002 16 6.40002C12.9657 6.40002 10.2605 7.80689 8.50038 10.0031C7.18358 11.6462 6.39551 13.731 6.39551 16C6.39551 18.2691 7.18358 20.3538 8.50038 21.9969C10.2605 24.1932 12.9657 25.6 16 25.6C19.0343 25.6 21.7394 24.1932 23.4995 21.9969L20.9997 19.9979C19.8263 21.4621 18.0228 22.4 16 22.4C13.9771 22.4 12.1736 21.4621 11.0002 19.9979C10.1224 18.9025 9.59699 17.5127 9.59699 16C9.59699 14.4873 10.1224 13.0975 11.0002 12.0021C12.1736 10.5379 13.9771 9.60002 16 9.60002C18.0228 9.60002 19.8263 10.5379 20.9997 12.0021Z" fill="white"/>
<path d="M16 13.4112C15.1818 13.4112 14.4523 13.7906 13.9776 14.3828C13.6225 14.8259 13.41 15.3881 13.41 16C13.41 16.6119 13.6226 17.1741 13.9776 17.6172C14.4523 18.2094 15.1818 18.5888 16 18.5888C16.8183 18.5888 17.5478 18.2094 18.0224 17.6172C18.3775 17.1741 18.59 16.6119 18.59 16C18.59 15.3881 18.3775 14.8259 18.0224 14.3828C17.5478 13.7906 16.8183 13.4112 16 13.4112Z" fill="white"/>
</g>
<defs>
<clipPath id="clip0_13419_431">
<rect width="25" height="32" fill="white" transform="translate(3.5)"/>
</clipPath>
</defs>
</svg>
