<svg width="32" height="32" viewBox="0 0 32 32" fill="none" xmlns="http://www.w3.org/2000/svg">
<g clip-path="url(#clip0_13419_525)">
<path d="M16.3926 3.20602C20.2954 3.32568 23.7365 5.17886 25.9998 8.00387L28.5 6.00463C25.5665 2.3442 21.0572 0 16 0C10.9428 0 6.43351 2.3442 3.5 6.00464L5.99979 8.00354C8.43057 4.97122 12.2078 3.0777 16.3926 3.20602Z" fill="white"/>
<path d="M15.6074 28.794C11.7046 28.6743 8.26349 26.8212 6.00021 23.9962L3.5 25.9954C6.43351 29.6558 10.9428 32 16 32C21.0572 32 25.5665 29.6558 28.5 25.9954L26.0002 23.9965C23.5694 27.0288 19.7922 28.9223 15.6074 28.794Z" fill="white"/>
<path d="M20.9997 12.0021L23.4995 10.0031C21.7394 7.80689 19.0343 6.40002 16 6.40002C12.9657 6.40002 10.2605 7.80689 8.50038 10.0031C7.18358 11.6462 6.39551 13.731 6.39551 16C6.39551 18.2691 7.18358 20.3538 8.50038 21.9969C10.2605 24.1932 12.9657 25.6 16 25.6C19.0343 25.6 21.7394 24.1932 23.4995 21.9969L20.9997 19.9979C19.8263 21.4621 18.0228 22.4 16 22.4C13.9771 22.4 12.1736 21.4621 11.0002 19.9979C10.1224 18.9025 9.59699 17.5127 9.59699 16C9.59699 14.4873 10.1224 13.0975 11.0002 12.0021C12.1736 10.5379 13.9771 9.60002 16 9.60002C18.0228 9.60002 19.8263 10.5379 20.9997 12.0021Z" fill="white"/>
<path d="M16 13.4112C15.1818 13.4112 14.4523 13.7906 13.9776 14.3828C13.6225 14.8259 13.41 15.3881 13.41 16C13.41 16.6119 13.6226 17.1741 13.9776 17.6172C14.4523 18.2094 15.1818 18.5888 16 18.5888C16.8183 18.5888 17.5478 18.2094 18.0224 17.6172C18.3775 17.1741 18.59 16.6119 18.59 16C18.59 15.3881 18.3775 14.8259 18.0224 14.3828C17.5478 13.7906 16.8183 13.4112 16 13.4112Z" fill="white"/>
</g>
<defs>
<clipPath id="clip0_13419_525">
<rect width="25" height="32" fill="white" transform="translate(3.5)"/>
</clipPath>
</defs>
</svg>
